<mxfile host="app.diagrams.net" modified="2022-03-14T11:38:23.656Z" agent="5.0 (Windows NT 10.0; Win64; x64) AppleWebKit/537.36 (KHTML, like Gecko) Chrome/99.0.4844.51 Safari/537.36" etag="_M7sJWaHnOm01K2MRn_h" version="17.1.2" type="github">
  <diagram id="GNN4CYFJk6d6bBhjBL5f" name="Page-1">
    <mxGraphModel dx="1221" dy="644" grid="1" gridSize="10" guides="1" tooltips="1" connect="1" arrows="1" fold="1" page="1" pageScale="1" pageWidth="3300" pageHeight="2339" math="0" shadow="0">
      <root>
        <mxCell id="0" />
        <mxCell id="1" parent="0" />
        <mxCell id="pT1w7B5th7WXJVg8m5GB-1" value="验布流程图" style="rounded=0;whiteSpace=wrap;html=1;" parent="1" vertex="1">
          <mxGeometry x="1510" y="20" width="280" height="40" as="geometry" />
        </mxCell>
        <mxCell id="kFctgK_35YU_g48_bW6F-10" style="edgeStyle=orthogonalEdgeStyle;rounded=0;orthogonalLoop=1;jettySize=auto;html=1;" edge="1" parent="1" source="kFctgK_35YU_g48_bW6F-8" target="kFctgK_35YU_g48_bW6F-9">
          <mxGeometry relative="1" as="geometry" />
        </mxCell>
        <mxCell id="kFctgK_35YU_g48_bW6F-8" value="验布开工" style="rounded=0;whiteSpace=wrap;html=1;" vertex="1" parent="1">
          <mxGeometry x="190" y="228" width="290" height="40" as="geometry" />
        </mxCell>
        <mxCell id="kFctgK_35YU_g48_bW6F-26" style="edgeStyle=orthogonalEdgeStyle;rounded=0;orthogonalLoop=1;jettySize=auto;html=1;entryX=0.5;entryY=0;entryDx=0;entryDy=0;fontSize=12;" edge="1" parent="1" source="kFctgK_35YU_g48_bW6F-9" target="kFctgK_35YU_g48_bW6F-11">
          <mxGeometry relative="1" as="geometry" />
        </mxCell>
        <mxCell id="kFctgK_35YU_g48_bW6F-9" value="选择派工单开工" style="rounded=0;whiteSpace=wrap;html=1;" vertex="1" parent="1">
          <mxGeometry x="275" y="308" width="120" height="60" as="geometry" />
        </mxCell>
        <mxCell id="kFctgK_35YU_g48_bW6F-38" style="edgeStyle=orthogonalEdgeStyle;rounded=0;orthogonalLoop=1;jettySize=auto;html=1;entryX=0.5;entryY=0;entryDx=0;entryDy=0;fontSize=12;" edge="1" parent="1" source="kFctgK_35YU_g48_bW6F-11" target="kFctgK_35YU_g48_bW6F-30">
          <mxGeometry relative="1" as="geometry" />
        </mxCell>
        <mxCell id="kFctgK_35YU_g48_bW6F-11" value="&lt;ol&gt;&lt;li&gt;完工不能开工&lt;/li&gt;&lt;li&gt;暂停不能开工&lt;/li&gt;&lt;li&gt;一开多报只能是未开工状态&lt;/li&gt;&lt;li&gt;上一工序必须开工&lt;/li&gt;&lt;/ol&gt;" style="whiteSpace=wrap;html=1;rounded=0;align=left;" vertex="1" parent="1">
          <mxGeometry x="231.25" y="468" width="207.5" height="80" as="geometry" />
        </mxCell>
        <mxCell id="kFctgK_35YU_g48_bW6F-19" value="结束" style="rounded=0;whiteSpace=wrap;html=1;" vertex="1" parent="1">
          <mxGeometry x="275" y="1248" width="120" height="60" as="geometry" />
        </mxCell>
        <mxCell id="kFctgK_35YU_g48_bW6F-27" value="派工单t_mes_production_step" style="text;html=1;strokeColor=none;fillColor=none;align=center;verticalAlign=middle;whiteSpace=wrap;rounded=0;fontSize=12;" vertex="1" parent="1">
          <mxGeometry x="350" y="398" width="150" height="30" as="geometry" />
        </mxCell>
        <mxCell id="kFctgK_35YU_g48_bW6F-51" style="edgeStyle=orthogonalEdgeStyle;rounded=0;orthogonalLoop=1;jettySize=auto;html=1;entryX=0.5;entryY=0;entryDx=0;entryDy=0;fontSize=12;" edge="1" parent="1" source="kFctgK_35YU_g48_bW6F-30" target="kFctgK_35YU_g48_bW6F-48">
          <mxGeometry relative="1" as="geometry" />
        </mxCell>
        <mxCell id="kFctgK_35YU_g48_bW6F-30" value="&lt;ol&gt;&lt;li&gt;冻结的计划工单不能操作&lt;/li&gt;&lt;/ol&gt;" style="rounded=0;whiteSpace=wrap;html=1;fontSize=12;align=left;" vertex="1" parent="1">
          <mxGeometry x="240" y="638" width="190" height="60" as="geometry" />
        </mxCell>
        <mxCell id="kFctgK_35YU_g48_bW6F-31" value="计划工单t_mes_shoporder" style="text;html=1;strokeColor=none;fillColor=none;align=center;verticalAlign=middle;whiteSpace=wrap;rounded=0;fontSize=12;" vertex="1" parent="1">
          <mxGeometry x="350" y="578" width="170" height="30" as="geometry" />
        </mxCell>
        <mxCell id="kFctgK_35YU_g48_bW6F-42" style="edgeStyle=orthogonalEdgeStyle;rounded=0;orthogonalLoop=1;jettySize=auto;html=1;entryX=0.5;entryY=0;entryDx=0;entryDy=0;fontSize=12;" edge="1" parent="1" source="kFctgK_35YU_g48_bW6F-40" target="kFctgK_35YU_g48_bW6F-19">
          <mxGeometry relative="1" as="geometry" />
        </mxCell>
        <mxCell id="kFctgK_35YU_g48_bW6F-46" value="" style="edgeStyle=orthogonalEdgeStyle;rounded=0;orthogonalLoop=1;jettySize=auto;html=1;fontSize=12;" edge="1" parent="1" source="kFctgK_35YU_g48_bW6F-40" target="kFctgK_35YU_g48_bW6F-45">
          <mxGeometry relative="1" as="geometry" />
        </mxCell>
        <mxCell id="kFctgK_35YU_g48_bW6F-40" value="是否首工序" style="rhombus;whiteSpace=wrap;html=1;fontSize=12;" vertex="1" parent="1">
          <mxGeometry x="282.5" y="1088" width="105" height="110" as="geometry" />
        </mxCell>
        <mxCell id="kFctgK_35YU_g48_bW6F-43" value="N" style="text;html=1;strokeColor=none;fillColor=none;align=center;verticalAlign=middle;whiteSpace=wrap;rounded=0;fontSize=12;" vertex="1" parent="1">
          <mxGeometry x="335" y="1198" width="60" height="30" as="geometry" />
        </mxCell>
        <mxCell id="kFctgK_35YU_g48_bW6F-68" value="" style="edgeStyle=orthogonalEdgeStyle;rounded=0;orthogonalLoop=1;jettySize=auto;html=1;fontSize=12;" edge="1" parent="1" source="kFctgK_35YU_g48_bW6F-45" target="kFctgK_35YU_g48_bW6F-67">
          <mxGeometry relative="1" as="geometry" />
        </mxCell>
        <mxCell id="kFctgK_35YU_g48_bW6F-45" value="&lt;ol&gt;&lt;li&gt;是否冻结&lt;/li&gt;&lt;/ol&gt;" style="whiteSpace=wrap;html=1;align=left;" vertex="1" parent="1">
          <mxGeometry x="520" y="1113" width="120" height="60" as="geometry" />
        </mxCell>
        <mxCell id="kFctgK_35YU_g48_bW6F-52" style="edgeStyle=orthogonalEdgeStyle;rounded=0;orthogonalLoop=1;jettySize=auto;html=1;entryX=0.5;entryY=0;entryDx=0;entryDy=0;fontSize=12;" edge="1" parent="1" source="kFctgK_35YU_g48_bW6F-48" target="kFctgK_35YU_g48_bW6F-49">
          <mxGeometry relative="1" as="geometry" />
        </mxCell>
        <mxCell id="kFctgK_35YU_g48_bW6F-48" value="创建执行派工单t_mes_execution" style="rounded=0;whiteSpace=wrap;html=1;fontSize=12;" vertex="1" parent="1">
          <mxGeometry x="275" y="748" width="120" height="60" as="geometry" />
        </mxCell>
        <mxCell id="kFctgK_35YU_g48_bW6F-53" style="edgeStyle=orthogonalEdgeStyle;rounded=0;orthogonalLoop=1;jettySize=auto;html=1;entryX=0.5;entryY=0;entryDx=0;entryDy=0;fontSize=12;" edge="1" parent="1" source="kFctgK_35YU_g48_bW6F-49" target="kFctgK_35YU_g48_bW6F-50">
          <mxGeometry relative="1" as="geometry" />
        </mxCell>
        <mxCell id="kFctgK_35YU_g48_bW6F-49" value="执行派工单开工t_mes_execution" style="rounded=0;whiteSpace=wrap;html=1;fontSize=12;" vertex="1" parent="1">
          <mxGeometry x="275" y="848" width="120" height="60" as="geometry" />
        </mxCell>
        <mxCell id="kFctgK_35YU_g48_bW6F-54" style="edgeStyle=orthogonalEdgeStyle;rounded=0;orthogonalLoop=1;jettySize=auto;html=1;entryX=0.5;entryY=0;entryDx=0;entryDy=0;fontSize=12;" edge="1" parent="1" source="kFctgK_35YU_g48_bW6F-50" target="kFctgK_35YU_g48_bW6F-40">
          <mxGeometry relative="1" as="geometry" />
        </mxCell>
        <mxCell id="kFctgK_35YU_g48_bW6F-50" value="修改派工单状态t_mes_production_step" style="rounded=0;whiteSpace=wrap;html=1;fontSize=12;" vertex="1" parent="1">
          <mxGeometry x="267.5" y="958" width="135" height="60" as="geometry" />
        </mxCell>
        <mxCell id="kFctgK_35YU_g48_bW6F-55" value="Y" style="text;html=1;strokeColor=none;fillColor=none;align=center;verticalAlign=middle;whiteSpace=wrap;rounded=0;fontSize=12;" vertex="1" parent="1">
          <mxGeometry x="400" y="1113" width="60" height="30" as="geometry" />
        </mxCell>
        <mxCell id="kFctgK_35YU_g48_bW6F-57" value="生产工单t_mes_shop_papers" style="text;html=1;strokeColor=none;fillColor=none;align=center;verticalAlign=middle;whiteSpace=wrap;rounded=0;fontSize=12;" vertex="1" parent="1">
          <mxGeometry x="410" y="1143" width="60" height="30" as="geometry" />
        </mxCell>
        <mxCell id="kFctgK_35YU_g48_bW6F-61" value="计划工单t_mes_shoporder" style="text;html=1;strokeColor=none;fillColor=none;align=center;verticalAlign=middle;whiteSpace=wrap;rounded=0;fontSize=12;" vertex="1" parent="1">
          <mxGeometry x="800" y="1188" width="130" height="30" as="geometry" />
        </mxCell>
        <mxCell id="kFctgK_35YU_g48_bW6F-71" value="" style="edgeStyle=orthogonalEdgeStyle;rounded=0;orthogonalLoop=1;jettySize=auto;html=1;fontSize=12;" edge="1" parent="1" source="kFctgK_35YU_g48_bW6F-62" target="kFctgK_35YU_g48_bW6F-70">
          <mxGeometry relative="1" as="geometry" />
        </mxCell>
        <mxCell id="kFctgK_35YU_g48_bW6F-62" value="&lt;ol&gt;&lt;li&gt;冻结的计划工单不能操作&lt;/li&gt;&lt;/ol&gt;" style="rounded=0;whiteSpace=wrap;html=1;fontSize=12;align=left;" vertex="1" parent="1">
          <mxGeometry x="700" y="1248" width="190" height="60" as="geometry" />
        </mxCell>
        <mxCell id="kFctgK_35YU_g48_bW6F-69" style="edgeStyle=orthogonalEdgeStyle;rounded=0;orthogonalLoop=1;jettySize=auto;html=1;fontSize=12;" edge="1" parent="1" source="kFctgK_35YU_g48_bW6F-67" target="kFctgK_35YU_g48_bW6F-62">
          <mxGeometry relative="1" as="geometry" />
        </mxCell>
        <mxCell id="kFctgK_35YU_g48_bW6F-67" value="修改生产工单状态" style="whiteSpace=wrap;html=1;align=center;" vertex="1" parent="1">
          <mxGeometry x="735" y="1113" width="120" height="60" as="geometry" />
        </mxCell>
        <mxCell id="kFctgK_35YU_g48_bW6F-72" value="" style="edgeStyle=orthogonalEdgeStyle;rounded=0;orthogonalLoop=1;jettySize=auto;html=1;fontSize=12;" edge="1" parent="1" source="kFctgK_35YU_g48_bW6F-70" target="kFctgK_35YU_g48_bW6F-19">
          <mxGeometry relative="1" as="geometry" />
        </mxCell>
        <mxCell id="kFctgK_35YU_g48_bW6F-70" value="&lt;span style=&quot;&quot;&gt;修改计划工单状态&lt;/span&gt;" style="whiteSpace=wrap;html=1;align=center;rounded=0;" vertex="1" parent="1">
          <mxGeometry x="520" y="1248" width="120" height="60" as="geometry" />
        </mxCell>
        <mxCell id="kFctgK_35YU_g48_bW6F-77" value="" style="edgeStyle=orthogonalEdgeStyle;rounded=0;orthogonalLoop=1;jettySize=auto;html=1;fontSize=12;" edge="1" parent="1" source="kFctgK_35YU_g48_bW6F-75" target="kFctgK_35YU_g48_bW6F-76">
          <mxGeometry relative="1" as="geometry" />
        </mxCell>
        <mxCell id="kFctgK_35YU_g48_bW6F-75" value="扫描条码" style="rounded=0;whiteSpace=wrap;html=1;" vertex="1" parent="1">
          <mxGeometry x="1181" y="228" width="290" height="40" as="geometry" />
        </mxCell>
        <mxCell id="kFctgK_35YU_g48_bW6F-76" value="1." style="whiteSpace=wrap;html=1;rounded=0;align=left;" vertex="1" parent="1">
          <mxGeometry x="1266" y="338" width="120" height="60" as="geometry" />
        </mxCell>
        <mxCell id="kFctgK_35YU_g48_bW6F-79" value="条码是否存在" style="text;html=1;strokeColor=none;fillColor=none;align=center;verticalAlign=middle;whiteSpace=wrap;rounded=0;fontSize=12;" vertex="1" parent="1">
          <mxGeometry x="1330" y="277" width="140" height="30" as="geometry" />
        </mxCell>
      </root>
    </mxGraphModel>
  </diagram>
</mxfile>
